<?xml version="1.0" encoding="iso-8859-1"?>
<!-- Uploaded to: SVG Repo, www.svgrepo.com, Generator: SVG Repo Mixer Tools -->
<svg height="800px" width="800px" version="1.1" id="Layer_1" xmlns="http://www.w3.org/2000/svg" xmlns:xlink="http://www.w3.org/1999/xlink" 
	 viewBox="0 0 512.002 512.002" xml:space="preserve">
<path style="fill:#F11C35;" d="M190.638,154.698l-10.032,19.748c-1.624,3.196-2.453,6.763-2.595,10.397
	c0.137,0.057,0.26,0.107,0.402,0.163l58.231,29.615l49.802-22.896C234.821,172.735,190.638,154.698,190.638,154.698z"/>
<path style="fill:#FF3845;" d="M178.011,184.843c-0.331,8.51,3.185,17.391,9.629,22.776c0.862,0.72,3.365,2.888,3.45,2.962
	l33.022,6.055l-8.238-16.73c-26.69-10.327-35.725-14.19-37.461-14.898C178.272,184.949,178.149,184.899,178.011,184.843z"/>
<g>
	<polygon style="fill:#614F44;" points="437.561,313.734 441.191,357.309 468.426,357.309 472.056,313.734 	"/>
	<polygon style="fill:#614F44;" points="372.199,313.734 375.83,357.309 403.064,357.309 406.695,313.734 	"/>
	<polygon style="fill:#614F44;" points="306.837,313.734 310.468,357.309 337.702,357.309 341.333,313.734 	"/>
	<polygon style="fill:#614F44;" points="123.664,313.734 127.295,357.309 154.529,357.309 158.161,313.734 	"/>
	<polygon style="fill:#614F44;" points="58.303,313.734 61.933,357.309 89.168,357.309 92.799,313.734 	"/>
</g>
<path style="fill:#FE676C;" d="M59.759,166.67H27.078c0,0-10.639,17.509-15.956,46.458l51.722,45.706L59.759,166.67z"/>
<path style="fill:#F11C35;" d="M471.457,240.634l-45.693-6.319c-3.844-0.532-8.154-1.321-12.84-2.324v1.032
	c-4.169,14.264-17.209,23.523-31.354,23.523c-2.971,0-5.987-0.414-8.983-1.27v49.747l131.243-13.075v-14.156
	C503.83,259.816,489.262,243.094,471.457,240.634z"/>
<path style="fill:#FF3845;" d="M466.982,273.006l-45.694-6.32c-4.564-0.631-9.536-1.526-15.198-2.738
	c-9.461-2.023-20.649-4.923-33.503-8.675c-0.066-0.019-0.133-0.031-0.199-0.05c-50.091-14.639-115.801-39.421-156.513-55.32
	c-7.758,4.436-16.065,8.045-24.784,10.677c-10.974,3.313-22.604,5.11-34.659,5.11c-39.689,0-74.864-19.3-96.671-49.021
	c0,0-16.661,27.427-18.702,70.377l27.805,22.219l193.209,48.814l209.077-13.951v-16.337
	C471.149,274.829,469.017,273.288,466.982,273.006z"/>
<path style="fill:#E30026;" d="M288.388,192.439c-0.649-0.239-1.295-0.477-1.942-0.714c-31.221-11.482-38.349-14.455-59.332,0.902
	c-3.599,2.635-7.35,5.054-11.239,7.277c40.712,15.9,106.421,40.682,156.513,55.32c3.061,0.894,6.146,1.32,9.182,1.32
	c14.145,0,27.185-9.258,31.354-23.523v-1.032C381.346,225.235,332.357,208.574,288.388,192.439z"/>
<path style="fill:#FF3845;" d="M43.023,217.765c-10.109-3.01-20.813-4.636-31.9-4.636c-1.772,9.645-2.953,20.561-2.953,32.521
	c0,18.083,2.622,33.77,5.884,46.298l33.276,2.22l8.741-38.201L43.023,217.765z"/>
<path style="fill:#E30026;" d="M229.627,259.266l-128.083-0.001c-14.243-19.622-34.721-34.416-58.519-41.5
	c-1.326,8.465-2.172,17.798-2.172,27.884c0,19.169,2.948,35.644,6.478,48.518l211.611,14.12l3.13-0.208l0.236-16.132
	C262.307,273.898,247.675,259.266,229.627,259.266z"/>
<polygon style="fill:#191514;" points="503.83,291.947 503.83,324.628 471.149,324.628 460.255,308.287 471.149,291.947 "/>
<path style="fill:#41362F;" d="M46.735,291.947H14.054c5.371,20.629,12.475,32.681,12.475,32.681H59.21l4.487-16.34L46.735,291.947z
	"/>
<path style="fill:#211C1A;" d="M46.735,291.947c5.371,20.629,12.475,32.681,12.475,32.681h411.939v-32.681H46.735z"/>
<path d="M472.577,232.54l-45.693-6.32c-3.646-0.504-7.727-1.247-12.174-2.194c-0.08-0.019-0.16-0.036-0.242-0.052
	c-8.296-1.777-17.858-4.265-28.25-7.265l2.508-7.405c1.448-4.274-0.843-8.912-5.118-10.359c-4.275-1.45-8.911,0.843-10.359,5.118
	l-2.691,7.945c-7.166-2.228-14.593-4.628-22.162-7.146l2.606-7.694c1.448-4.274-0.843-8.912-5.118-10.359
	c-4.272-1.452-8.912,0.843-10.359,5.118l-2.606,7.694c-7.298-2.513-14.653-5.099-21.968-7.714l2.664-7.867
	c1.448-4.274-0.843-8.912-5.118-10.359c-4.277-1.452-8.913,0.843-10.359,5.118l-2.558,7.555c-7.436-2.715-14.753-5.424-21.845-8.08
	l2.705-7.989c1.448-4.274-0.843-8.912-5.118-10.359c-4.272-1.452-8.912,0.843-10.359,5.118l-2.525,7.458
	c-36.573-13.909-64.026-25.087-64.714-25.368c-3.936-1.608-8.447,0.073-10.372,3.864l-10.032,19.748
	c-5.523,10.872-4.349,24.737,2.172,35.165c-6.242,1.068-12.612,1.611-19.064,1.611c-35.42,0-69.095-17.079-90.084-45.685
	c-1.539-2.098-3.986-3.337-6.587-3.337H27.078c-2.854,0-5.5,1.489-6.983,3.927C19.275,163.779,0,196.074,0,245.649
	c0,49.518,18.697,81.781,19.492,83.13c1.47,2.49,4.146,4.019,7.037,4.019h25.163l2.099,25.189c0.353,4.234,3.892,7.492,8.142,7.492
	h27.234c4.25,0,7.789-3.257,8.142-7.492l2.099-25.189h17.645l2.099,25.189c0.353,4.234,3.892,7.492,8.142,7.492h27.234
	c4.25,0,7.789-3.257,8.142-7.492l2.099-25.189h135.458l2.099,25.189c0.352,4.234,3.892,7.492,8.142,7.492h27.234
	c4.249,0,7.789-3.257,8.142-7.492l2.099-25.189h17.645l2.099,25.189c0.352,4.234,3.892,7.492,8.142,7.492h27.234
	c4.249,0,7.789-3.257,8.142-7.492l2.099-25.189h17.645l2.099,25.189c0.352,4.234,3.892,7.492,8.142,7.492h27.234
	c4.249,0,7.789-3.257,8.142-7.492l2.099-25.189h25.164c4.513,0,8.17-3.657,8.17-8.17v-46.837
	C512,255.844,494.315,235.546,472.577,232.54z M252.414,190.301l-0.198,0.586c-1.447,4.274,0.844,8.912,5.119,10.359
	c0.868,0.295,1.752,0.434,2.621,0.434c3.406,0,6.584-2.147,7.738-5.552l0.746-2.204c1.875,0.634,3.886,1.344,6.071,2.134
	c5.182,1.927,10.468,3.875,15.815,5.825l-0.929,2.743c-1.448,4.274,0.843,8.912,5.118,10.359c0.869,0.295,1.752,0.434,2.621,0.434
	c3.406,0,6.585-2.147,7.738-5.552l0.825-2.435c7.309,2.609,14.663,5.19,21.972,7.701l-0.877,2.589
	c-1.448,4.274,0.843,8.912,5.118,10.359c0.868,0.295,1.752,0.434,2.621,0.434c3.406,0,6.584-2.147,7.738-5.552l0.88-2.598
	c7.551,2.508,14.972,4.9,22.166,7.132l-0.794,2.343c-1.448,4.274,0.843,8.912,5.118,10.359c0.869,0.295,1.752,0.434,2.621,0.434
	c3.405,0,6.584-2.147,7.738-5.552l0.976-2.88c7.32,2.116,14.264,3.993,20.716,5.578c-4.5,6.471-11.98,10.598-20.121,10.598
	c-2.319,0-4.637-0.334-6.89-0.992c-43.387-12.679-98.284-32.866-141.077-49.361C241.173,192.622,246.145,190.2,252.414,190.301z
	 M187.891,178.146l6.634-13.059c7.614,3.067,20.786,8.327,37.247,14.718c-2.953,1.677-6.082,3.741-9.485,6.231
	c-3.303,2.417-6.715,4.634-10.216,6.655c-0.172,0.09-0.339,0.19-0.504,0.292c-5.954,3.396-12.174,6.22-18.599,8.444
	c-0.032-0.026-0.061-0.052-0.089-0.075C186.497,196.016,184.211,185.389,187.891,178.146z M16.34,245.649
	c0-8.632,0.656-16.698,1.711-24.108c30.45,2.064,58.806,17.625,76.88,42.523c1.537,2.117,3.995,3.37,6.611,3.37l128.083,0.001
	c10.651,0,19.733,6.831,23.105,16.34H20.487C18.096,272.977,16.34,260.12,16.34,245.649z M81.65,349.138H69.451l-1.362-16.34h14.922
	L81.65,349.138z M147.012,349.138h-12.199l-1.362-16.34h14.922L147.012,349.138z M330.184,349.138h-12.198l-1.363-16.34h14.923
	L330.184,349.138z M395.546,349.138h-12.198l-1.363-16.34h14.923L395.546,349.138z M460.908,349.138H448.71l-1.363-16.34h14.923
	L460.908,349.138z M471.039,316.458c-0.024,0-0.05,0-0.074,0h-32.303c-0.034-0.001-0.069,0-0.103,0h-32.881
	c-0.024,0-0.049,0-0.073,0h-32.302c-0.035-0.001-0.07,0-0.105,0h-32.882c-0.024,0-0.049,0-0.073,0H307.94
	c-0.035-0.001-0.069,0-0.105,0H157.173c-0.042,0-0.084-0.001-0.125,0h-32.298c-0.017,0-0.035,0-0.051,0H91.812
	c-0.042,0-0.084-0.001-0.125,0h-32.3c-0.017,0-0.035,0-0.051,0H31.488c-1.653-3.43-4.082-8.986-6.514-16.34h413.494
	c4.513,0,8.17-3.657,8.17-8.17c0-4.513-3.657-8.17-8.17-8.17H269.655c-3.795-18.624-20.301-32.681-40.03-32.681l-124.01-0.001
	c-20.572-26.323-51.362-42.902-84.465-45.709c3.544-14.588,8.188-25.196,10.83-30.546h23.724
	c24.179,30.771,61.52,49.021,100.725,49.021c21.216,0,41.664-5.142,60.049-14.949c44.363,17.272,105.784,40.176,153.615,54.154
	c3.742,1.094,7.603,1.648,11.474,1.648c15.819,0,30.17-9.319,36.864-23.308c2.173,0.391,4.252,0.729,6.212,1l45.693,6.32
	c13.726,1.897,25.321,15.208,25.321,29.064v5.986h-24.511c-4.513,0-8.17,3.657-8.17,8.17s3.657,8.17,8.17,8.17h24.512v16.34h-24.621
	V316.458z"/>
</svg>